%TF.GenerationSoftware,KiCad,Pcbnew,7.0.1*%
%TF.CreationDate,2024-02-07T17:27:31+02:00*%
%TF.ProjectId,mic_board,6d69635f-626f-4617-9264-2e6b69636164,rev?*%
%TF.SameCoordinates,Original*%
%TF.FileFunction,Copper,L1,Top*%
%TF.FilePolarity,Positive*%
%FSLAX46Y46*%
G04 Gerber Fmt 4.6, Leading zero omitted, Abs format (unit mm)*
G04 Created by KiCad (PCBNEW 7.0.1) date 2024-02-07 17:27:31*
%MOMM*%
%LPD*%
G01*
G04 APERTURE LIST*
%TA.AperFunction,SMDPad,CuDef*%
%ADD10R,2.000000X1.700000*%
%TD*%
%TA.AperFunction,SMDPad,CuDef*%
%ADD11C,0.900000*%
%TD*%
%TA.AperFunction,SMDPad,CuDef*%
%ADD12R,2.500000X1.700000*%
%TD*%
%TA.AperFunction,SMDPad,CuDef*%
%ADD13R,1.700000X2.000000*%
%TD*%
%TA.AperFunction,Conductor*%
%ADD14C,0.400000*%
%TD*%
G04 APERTURE END LIST*
D10*
X125462800Y-68630800D03*
X121462800Y-68630800D03*
D11*
X116230400Y-77063600D03*
X116230400Y-74603600D03*
X117930400Y-74603600D03*
X117930400Y-77063600D03*
D12*
X122834400Y-73253600D03*
X122834400Y-75793600D03*
X122834400Y-78333600D03*
D13*
X116687600Y-69481200D03*
X116687600Y-65481200D03*
D10*
X125513600Y-65481200D03*
X121513600Y-65481200D03*
D14*
X117500400Y-78333600D02*
X116230400Y-77063600D01*
X122834400Y-78333600D02*
X117500400Y-78333600D01*
X119200400Y-75793600D02*
X122834400Y-75793600D01*
X117930400Y-77063600D02*
X119200400Y-75793600D01*
X121462800Y-69240400D02*
X121462800Y-68630800D01*
X117930400Y-72772800D02*
X121462800Y-69240400D01*
X117930400Y-74603600D02*
X117930400Y-72772800D01*
X113995200Y-72173600D02*
X116687600Y-69481200D01*
X113995200Y-75641200D02*
X113995200Y-72173600D01*
X115417600Y-77063600D02*
X113995200Y-75641200D01*
X116230400Y-77063600D02*
X115417600Y-77063600D01*
%TA.AperFunction,Conductor*%
G36*
X129478000Y-62881613D02*
G01*
X129523387Y-62927000D01*
X129540000Y-62989000D01*
X129540000Y-80521000D01*
X129523387Y-80583000D01*
X129478000Y-80628387D01*
X129416000Y-80645000D01*
X112519000Y-80645000D01*
X112457000Y-80628387D01*
X112411613Y-80583000D01*
X112395000Y-80521000D01*
X112395000Y-75683807D01*
X113290841Y-75683807D01*
X113301683Y-75742971D01*
X113302810Y-75750372D01*
X113310060Y-75810073D01*
X113313650Y-75819539D01*
X113319675Y-75841152D01*
X113321503Y-75851129D01*
X113346191Y-75905983D01*
X113349056Y-75912901D01*
X113370380Y-75969126D01*
X113370382Y-75969130D01*
X113376141Y-75977473D01*
X113387161Y-75997013D01*
X113391320Y-76006254D01*
X113428416Y-76053605D01*
X113432854Y-76059636D01*
X113466583Y-76108501D01*
X113467017Y-76109129D01*
X113512047Y-76149022D01*
X113517483Y-76154140D01*
X114904658Y-77541315D01*
X114909778Y-77546753D01*
X114949671Y-77591783D01*
X114949672Y-77591784D01*
X114999169Y-77625949D01*
X115005202Y-77630388D01*
X115052543Y-77667477D01*
X115061774Y-77671631D01*
X115081326Y-77682658D01*
X115089670Y-77688418D01*
X115145922Y-77709751D01*
X115152828Y-77712612D01*
X115207668Y-77737294D01*
X115217630Y-77739119D01*
X115239250Y-77745146D01*
X115248725Y-77748739D01*
X115248728Y-77748740D01*
X115308456Y-77755992D01*
X115315801Y-77757109D01*
X115374994Y-77767957D01*
X115435022Y-77764326D01*
X115442510Y-77764100D01*
X115541312Y-77764100D01*
X115583087Y-77771349D01*
X115619976Y-77792246D01*
X115699775Y-77857736D01*
X115864899Y-77945996D01*
X116044069Y-78000347D01*
X116146804Y-78010465D01*
X116187666Y-78021773D01*
X116222330Y-78046187D01*
X116987458Y-78811315D01*
X116992578Y-78816753D01*
X117032471Y-78861783D01*
X117081977Y-78895954D01*
X117087996Y-78900385D01*
X117131578Y-78934528D01*
X117135343Y-78937478D01*
X117144590Y-78941639D01*
X117164126Y-78952658D01*
X117172470Y-78958418D01*
X117228734Y-78979755D01*
X117235595Y-78982597D01*
X117290468Y-79007294D01*
X117300436Y-79009120D01*
X117322052Y-79015146D01*
X117331528Y-79018740D01*
X117391256Y-79025992D01*
X117398601Y-79027109D01*
X117457794Y-79037957D01*
X117517822Y-79034326D01*
X117525310Y-79034100D01*
X120959901Y-79034100D01*
X121021901Y-79050713D01*
X121067288Y-79096100D01*
X121083901Y-79158100D01*
X121083901Y-79231472D01*
X121090309Y-79291083D01*
X121140604Y-79425931D01*
X121226854Y-79541146D01*
X121342069Y-79627396D01*
X121476917Y-79677691D01*
X121536527Y-79684100D01*
X124132272Y-79684099D01*
X124191883Y-79677691D01*
X124326731Y-79627396D01*
X124441946Y-79541146D01*
X124528196Y-79425931D01*
X124578491Y-79291083D01*
X124584900Y-79231473D01*
X124584899Y-77435728D01*
X124578491Y-77376117D01*
X124528196Y-77241269D01*
X124450821Y-77137910D01*
X124428923Y-77089958D01*
X124428923Y-77037242D01*
X124450822Y-76989289D01*
X124528196Y-76885931D01*
X124578491Y-76751083D01*
X124584900Y-76691473D01*
X124584899Y-74895728D01*
X124578491Y-74836117D01*
X124528196Y-74701269D01*
X124450508Y-74597492D01*
X124428610Y-74549540D01*
X124428610Y-74496823D01*
X124450510Y-74448870D01*
X124527752Y-74345689D01*
X124577997Y-74210975D01*
X124584400Y-74151424D01*
X124584400Y-73503600D01*
X121084400Y-73503600D01*
X121084400Y-74151424D01*
X121090802Y-74210975D01*
X121141047Y-74345689D01*
X121218290Y-74448872D01*
X121240189Y-74496825D01*
X121240189Y-74549541D01*
X121218290Y-74597494D01*
X121140604Y-74701268D01*
X121090309Y-74836116D01*
X121083900Y-74895731D01*
X121083900Y-74969100D01*
X121067287Y-75031100D01*
X121021900Y-75076487D01*
X120959900Y-75093100D01*
X119225310Y-75093100D01*
X119217823Y-75092874D01*
X119157791Y-75089242D01*
X119098642Y-75100081D01*
X119091243Y-75101208D01*
X119031522Y-75108460D01*
X119022041Y-75112056D01*
X119000436Y-75118079D01*
X118990467Y-75119906D01*
X118980448Y-75124415D01*
X118925250Y-75135262D01*
X118870940Y-75120605D01*
X118828695Y-75083460D01*
X118807208Y-75031472D01*
X118810902Y-74975341D01*
X118812793Y-74969105D01*
X118812796Y-74969101D01*
X118867147Y-74789931D01*
X118885499Y-74603600D01*
X118867147Y-74417269D01*
X118812796Y-74238099D01*
X118724536Y-74072975D01*
X118659046Y-73993176D01*
X118638149Y-73956287D01*
X118630900Y-73914512D01*
X118630900Y-73114319D01*
X118640339Y-73066866D01*
X118667219Y-73026638D01*
X118690257Y-73003600D01*
X121084400Y-73003600D01*
X122584400Y-73003600D01*
X122584400Y-71903600D01*
X123084400Y-71903600D01*
X123084400Y-73003600D01*
X124584400Y-73003600D01*
X124584400Y-72355776D01*
X124577997Y-72296224D01*
X124527752Y-72161510D01*
X124441588Y-72046411D01*
X124326489Y-71960247D01*
X124191775Y-71910002D01*
X124132224Y-71903600D01*
X123084400Y-71903600D01*
X122584400Y-71903600D01*
X121536576Y-71903600D01*
X121477024Y-71910002D01*
X121342310Y-71960247D01*
X121227211Y-72046411D01*
X121141047Y-72161510D01*
X121090802Y-72296224D01*
X121084400Y-72355776D01*
X121084400Y-73003600D01*
X118690257Y-73003600D01*
X121676238Y-70017618D01*
X121716466Y-69990738D01*
X121763919Y-69981299D01*
X122510670Y-69981299D01*
X122510672Y-69981299D01*
X122570283Y-69974891D01*
X122705131Y-69924596D01*
X122820346Y-69838346D01*
X122906596Y-69723131D01*
X122956891Y-69588283D01*
X122963300Y-69528673D01*
X122963300Y-69528669D01*
X123962300Y-69528669D01*
X123968709Y-69588283D01*
X124019004Y-69723131D01*
X124105254Y-69838346D01*
X124220469Y-69924596D01*
X124355317Y-69974891D01*
X124414927Y-69981300D01*
X126510672Y-69981299D01*
X126570283Y-69974891D01*
X126705131Y-69924596D01*
X126820346Y-69838346D01*
X126906596Y-69723131D01*
X126956891Y-69588283D01*
X126963300Y-69528673D01*
X126963299Y-67732928D01*
X126956891Y-67673317D01*
X126906596Y-67538469D01*
X126820346Y-67423254D01*
X126705131Y-67337004D01*
X126570283Y-67286709D01*
X126510673Y-67280300D01*
X126510669Y-67280300D01*
X124414930Y-67280300D01*
X124355315Y-67286709D01*
X124220469Y-67337004D01*
X124105254Y-67423254D01*
X124019004Y-67538468D01*
X123968709Y-67673316D01*
X123962300Y-67732930D01*
X123962300Y-69528669D01*
X122963300Y-69528669D01*
X122963299Y-67732928D01*
X122956891Y-67673317D01*
X122906596Y-67538469D01*
X122820346Y-67423254D01*
X122705131Y-67337004D01*
X122570283Y-67286709D01*
X122510673Y-67280300D01*
X122510669Y-67280300D01*
X120414930Y-67280300D01*
X120355315Y-67286709D01*
X120220469Y-67337004D01*
X120105254Y-67423254D01*
X120019004Y-67538468D01*
X119968709Y-67673316D01*
X119962300Y-67732930D01*
X119962300Y-69528669D01*
X119968709Y-69588286D01*
X119983116Y-69626913D01*
X119988100Y-69696604D01*
X119954615Y-69757926D01*
X117452690Y-72259851D01*
X117447238Y-72264983D01*
X117402216Y-72304870D01*
X117368049Y-72354368D01*
X117363613Y-72360397D01*
X117326521Y-72407742D01*
X117322361Y-72416986D01*
X117311341Y-72436525D01*
X117305582Y-72444869D01*
X117284253Y-72501105D01*
X117281389Y-72508019D01*
X117256703Y-72562870D01*
X117254875Y-72572847D01*
X117248854Y-72594448D01*
X117245259Y-72603928D01*
X117238009Y-72663627D01*
X117236883Y-72671026D01*
X117226041Y-72730191D01*
X117229674Y-72790234D01*
X117229900Y-72797721D01*
X117229900Y-73914512D01*
X117222651Y-73956287D01*
X117201752Y-73993178D01*
X117128863Y-74081991D01*
X117077637Y-74119016D01*
X117067400Y-74120151D01*
X116583953Y-74603600D01*
X116583953Y-74603601D01*
X117067399Y-75087046D01*
X117077635Y-75088181D01*
X117128864Y-75125208D01*
X117136263Y-75134224D01*
X117136264Y-75134225D01*
X117255043Y-75278957D01*
X117399775Y-75397736D01*
X117564899Y-75485996D01*
X117744069Y-75540347D01*
X117930400Y-75558699D01*
X118116731Y-75540347D01*
X118140050Y-75533272D01*
X118204991Y-75531359D01*
X118261988Y-75562546D01*
X118295390Y-75618273D01*
X118296028Y-75683241D01*
X118263727Y-75739614D01*
X117922330Y-76081011D01*
X117887667Y-76105424D01*
X117846805Y-76116733D01*
X117744066Y-76126853D01*
X117564899Y-76181203D01*
X117399775Y-76269463D01*
X117255045Y-76388241D01*
X117176253Y-76484249D01*
X117133416Y-76517678D01*
X117080400Y-76529583D01*
X117027384Y-76517678D01*
X116984547Y-76484249D01*
X116905757Y-76388243D01*
X116761025Y-76269464D01*
X116761024Y-76269463D01*
X116595900Y-76181203D01*
X116416732Y-76126853D01*
X116230400Y-76108501D01*
X116044067Y-76126853D01*
X115864901Y-76181203D01*
X115725060Y-76255948D01*
X115674717Y-76270324D01*
X115622929Y-76262641D01*
X115578927Y-76234270D01*
X114773387Y-75428730D01*
X115758821Y-75428730D01*
X115865087Y-75485530D01*
X116044169Y-75539855D01*
X116230400Y-75558196D01*
X116416630Y-75539855D01*
X116595710Y-75485531D01*
X116701977Y-75428730D01*
X116701977Y-75428729D01*
X116230401Y-74957153D01*
X116230400Y-74957153D01*
X115758821Y-75428730D01*
X114773387Y-75428730D01*
X114732019Y-75387362D01*
X114705139Y-75347134D01*
X114695700Y-75299681D01*
X114695700Y-74603600D01*
X115275803Y-74603600D01*
X115294145Y-74789834D01*
X115348466Y-74968907D01*
X115405269Y-75075176D01*
X115876847Y-74603601D01*
X115876847Y-74603600D01*
X115405269Y-74132022D01*
X115405268Y-74132022D01*
X115348466Y-74238294D01*
X115294145Y-74417365D01*
X115275803Y-74603600D01*
X114695700Y-74603600D01*
X114695700Y-73778469D01*
X115758822Y-73778469D01*
X116230400Y-74250047D01*
X116230401Y-74250047D01*
X116701976Y-73778469D01*
X116701976Y-73778468D01*
X116595707Y-73721666D01*
X116416634Y-73667345D01*
X116230400Y-73649003D01*
X116044165Y-73667345D01*
X115865094Y-73721666D01*
X115758822Y-73778468D01*
X115758822Y-73778469D01*
X114695700Y-73778469D01*
X114695700Y-72515119D01*
X114705139Y-72467666D01*
X114732019Y-72427438D01*
X116141437Y-71018018D01*
X116181665Y-70991138D01*
X116229118Y-70981699D01*
X117585470Y-70981699D01*
X117585472Y-70981699D01*
X117645083Y-70975291D01*
X117779931Y-70924996D01*
X117895146Y-70838746D01*
X117981396Y-70723531D01*
X118031691Y-70588683D01*
X118038100Y-70529073D01*
X118038099Y-68433328D01*
X118031691Y-68373717D01*
X117981396Y-68238869D01*
X117895146Y-68123654D01*
X117779931Y-68037404D01*
X117645083Y-67987109D01*
X117585473Y-67980700D01*
X117585469Y-67980700D01*
X115789730Y-67980700D01*
X115730115Y-67987109D01*
X115595269Y-68037404D01*
X115480054Y-68123654D01*
X115393804Y-68238868D01*
X115343509Y-68373716D01*
X115337100Y-68433331D01*
X115337100Y-69789681D01*
X115327661Y-69837134D01*
X115300781Y-69877362D01*
X113517490Y-71660651D01*
X113512038Y-71665783D01*
X113467016Y-71705670D01*
X113432849Y-71755168D01*
X113428413Y-71761197D01*
X113391321Y-71808542D01*
X113387161Y-71817786D01*
X113376141Y-71837325D01*
X113370382Y-71845669D01*
X113349053Y-71901905D01*
X113346189Y-71908819D01*
X113321503Y-71963670D01*
X113319675Y-71973647D01*
X113313654Y-71995248D01*
X113310059Y-72004728D01*
X113302809Y-72064427D01*
X113301683Y-72071826D01*
X113290841Y-72130991D01*
X113294474Y-72191034D01*
X113294700Y-72198521D01*
X113294700Y-75616279D01*
X113294474Y-75623766D01*
X113290841Y-75683807D01*
X112395000Y-75683807D01*
X112395000Y-65731200D01*
X115337600Y-65731200D01*
X115337600Y-66529024D01*
X115344002Y-66588575D01*
X115394247Y-66723289D01*
X115480411Y-66838388D01*
X115595510Y-66924552D01*
X115730224Y-66974797D01*
X115789776Y-66981200D01*
X116437600Y-66981200D01*
X116437600Y-65731200D01*
X116937600Y-65731200D01*
X116937600Y-66981200D01*
X117585424Y-66981200D01*
X117644975Y-66974797D01*
X117779689Y-66924552D01*
X117894788Y-66838388D01*
X117980952Y-66723289D01*
X118031197Y-66588575D01*
X118037600Y-66529024D01*
X118037600Y-65731200D01*
X120013600Y-65731200D01*
X120013600Y-66379024D01*
X120020002Y-66438575D01*
X120070247Y-66573289D01*
X120156411Y-66688388D01*
X120271510Y-66774552D01*
X120406224Y-66824797D01*
X120465776Y-66831200D01*
X121263600Y-66831200D01*
X121263600Y-65731200D01*
X121763600Y-65731200D01*
X121763600Y-66831200D01*
X122561424Y-66831200D01*
X122620975Y-66824797D01*
X122755689Y-66774552D01*
X122870788Y-66688388D01*
X122956952Y-66573289D01*
X123007197Y-66438575D01*
X123013595Y-66379069D01*
X124013100Y-66379069D01*
X124019497Y-66438575D01*
X124019509Y-66438683D01*
X124069804Y-66573531D01*
X124156054Y-66688746D01*
X124271269Y-66774996D01*
X124406117Y-66825291D01*
X124465727Y-66831700D01*
X126561472Y-66831699D01*
X126621083Y-66825291D01*
X126755931Y-66774996D01*
X126871146Y-66688746D01*
X126957396Y-66573531D01*
X127007691Y-66438683D01*
X127014100Y-66379073D01*
X127014099Y-64583328D01*
X127007691Y-64523717D01*
X126957396Y-64388869D01*
X126871146Y-64273654D01*
X126755931Y-64187404D01*
X126621083Y-64137109D01*
X126561473Y-64130700D01*
X126561469Y-64130700D01*
X124465730Y-64130700D01*
X124406115Y-64137109D01*
X124271269Y-64187404D01*
X124156054Y-64273654D01*
X124069804Y-64388868D01*
X124019509Y-64523716D01*
X124013100Y-64583330D01*
X124013100Y-66379069D01*
X123013595Y-66379069D01*
X123013600Y-66379024D01*
X123013600Y-65731200D01*
X121763600Y-65731200D01*
X121263600Y-65731200D01*
X120013600Y-65731200D01*
X118037600Y-65731200D01*
X116937600Y-65731200D01*
X116437600Y-65731200D01*
X115337600Y-65731200D01*
X112395000Y-65731200D01*
X112395000Y-65231200D01*
X115337600Y-65231200D01*
X116437600Y-65231200D01*
X116437600Y-63981200D01*
X116937600Y-63981200D01*
X116937600Y-65231200D01*
X118037600Y-65231200D01*
X120013600Y-65231200D01*
X121263600Y-65231200D01*
X121263600Y-64131200D01*
X121763600Y-64131200D01*
X121763600Y-65231200D01*
X123013600Y-65231200D01*
X123013600Y-64583376D01*
X123007197Y-64523824D01*
X122956952Y-64389110D01*
X122870788Y-64274011D01*
X122755689Y-64187847D01*
X122620975Y-64137602D01*
X122561424Y-64131200D01*
X121763600Y-64131200D01*
X121263600Y-64131200D01*
X120465776Y-64131200D01*
X120406224Y-64137602D01*
X120271510Y-64187847D01*
X120156411Y-64274011D01*
X120070247Y-64389110D01*
X120020002Y-64523824D01*
X120013600Y-64583376D01*
X120013600Y-65231200D01*
X118037600Y-65231200D01*
X118037600Y-64433376D01*
X118031197Y-64373824D01*
X117980952Y-64239110D01*
X117894788Y-64124011D01*
X117779689Y-64037847D01*
X117644975Y-63987602D01*
X117585424Y-63981200D01*
X116937600Y-63981200D01*
X116437600Y-63981200D01*
X115789776Y-63981200D01*
X115730224Y-63987602D01*
X115595510Y-64037847D01*
X115480411Y-64124011D01*
X115394247Y-64239110D01*
X115344002Y-64373824D01*
X115337600Y-64433376D01*
X115337600Y-65231200D01*
X112395000Y-65231200D01*
X112395000Y-62989000D01*
X112411613Y-62927000D01*
X112457000Y-62881613D01*
X112519000Y-62865000D01*
X129416000Y-62865000D01*
X129478000Y-62881613D01*
G37*
%TD.AperFunction*%
M02*
