%TF.GenerationSoftware,KiCad,Pcbnew,7.0.1*%
%TF.CreationDate,2024-12-17T12:15:10+02:00*%
%TF.ProjectId,mic_board,6d69635f-626f-4617-9264-2e6b69636164,rev?*%
%TF.SameCoordinates,Original*%
%TF.FileFunction,Copper,L1,Top*%
%TF.FilePolarity,Positive*%
%FSLAX46Y46*%
G04 Gerber Fmt 4.6, Leading zero omitted, Abs format (unit mm)*
G04 Created by KiCad (PCBNEW 7.0.1) date 2024-12-17 12:15:10*
%MOMM*%
%LPD*%
G01*
G04 APERTURE LIST*
%TA.AperFunction,SMDPad,CuDef*%
%ADD10C,0.900000*%
%TD*%
%TA.AperFunction,ComponentPad*%
%ADD11O,1.700000X1.700000*%
%TD*%
%TA.AperFunction,SMDPad,CuDef*%
%ADD12R,2.000000X1.700000*%
%TD*%
%TA.AperFunction,ViaPad*%
%ADD13C,2.100000*%
%TD*%
%TA.AperFunction,Conductor*%
%ADD14C,0.400000*%
%TD*%
%TA.AperFunction,Conductor*%
%ADD15C,0.250000*%
%TD*%
G04 APERTURE END LIST*
D10*
X119430800Y-78028800D03*
X116970800Y-78028800D03*
X116970800Y-76328800D03*
X119430800Y-76328800D03*
D11*
X122631200Y-74980800D03*
X122631200Y-77520800D03*
X122631200Y-80060800D03*
D12*
X115481600Y-74015600D03*
X119481600Y-74015600D03*
X119532400Y-80721200D03*
X115532400Y-80721200D03*
D13*
X125577600Y-77317600D03*
X114249200Y-77327600D03*
D14*
X119430800Y-78028800D02*
X119430800Y-80619600D01*
X119532400Y-80721200D02*
X121970800Y-80721200D01*
X119596400Y-77863200D02*
X119430800Y-78028800D01*
X119430800Y-80619600D02*
X119532400Y-80721200D01*
X121970800Y-80721200D02*
X122631200Y-80060800D01*
D15*
X115481600Y-74839600D02*
X116970800Y-76328800D01*
X115481600Y-74015600D02*
X115481600Y-74839600D01*
X122631200Y-77520800D02*
X121439200Y-76328800D01*
X121439200Y-76328800D02*
X119430800Y-76328800D01*
%TA.AperFunction,Conductor*%
G36*
X122205762Y-71019005D02*
G01*
X122420800Y-71027900D01*
X122616655Y-71036452D01*
X122626530Y-71037281D01*
X122839906Y-71063879D01*
X122839993Y-71063890D01*
X123038145Y-71089977D01*
X123047392Y-71091553D01*
X123256721Y-71135444D01*
X123257965Y-71135712D01*
X123453586Y-71179080D01*
X123462101Y-71181289D01*
X123666865Y-71242250D01*
X123668525Y-71242759D01*
X123859896Y-71303098D01*
X123867653Y-71305831D01*
X124066563Y-71383446D01*
X124068713Y-71384311D01*
X124254224Y-71461152D01*
X124261172Y-71464286D01*
X124429103Y-71546382D01*
X124452787Y-71557961D01*
X124455583Y-71559372D01*
X124633620Y-71652052D01*
X124639836Y-71655518D01*
X124822993Y-71764655D01*
X124826129Y-71766587D01*
X124889691Y-71807081D01*
X124995482Y-71874478D01*
X125000910Y-71878141D01*
X125174384Y-72001999D01*
X125177816Y-72004540D01*
X125337112Y-72126772D01*
X125341767Y-72130526D01*
X125504426Y-72268291D01*
X125508038Y-72271472D01*
X125656125Y-72407169D01*
X125660007Y-72410886D01*
X125810712Y-72561591D01*
X125814432Y-72565476D01*
X125950121Y-72713555D01*
X125953307Y-72717172D01*
X126091072Y-72879831D01*
X126094826Y-72884486D01*
X126217058Y-73043782D01*
X126219599Y-73047214D01*
X126343457Y-73220688D01*
X126347120Y-73226116D01*
X126455000Y-73395452D01*
X126456943Y-73398605D01*
X126566080Y-73581762D01*
X126569546Y-73587978D01*
X126662226Y-73766015D01*
X126663637Y-73768811D01*
X126757299Y-73960397D01*
X126760460Y-73967405D01*
X126837251Y-74152795D01*
X126838208Y-74155174D01*
X126915759Y-74353923D01*
X126918502Y-74361709D01*
X126978802Y-74552954D01*
X126979386Y-74554860D01*
X127040305Y-74759484D01*
X127042521Y-74768027D01*
X127085871Y-74963566D01*
X127086171Y-74964959D01*
X127130044Y-75174202D01*
X127131622Y-75183462D01*
X127157659Y-75381229D01*
X127157768Y-75382077D01*
X127184314Y-75595041D01*
X127185148Y-75604970D01*
X127193713Y-75801128D01*
X127193725Y-75801413D01*
X127202594Y-76015838D01*
X127202700Y-76020962D01*
X127202700Y-77953838D01*
X127202594Y-77958963D01*
X127193725Y-78173387D01*
X127193713Y-78173671D01*
X127185148Y-78369828D01*
X127184314Y-78379757D01*
X127157768Y-78592721D01*
X127157659Y-78593569D01*
X127131622Y-78791336D01*
X127130044Y-78800596D01*
X127086171Y-79009839D01*
X127085871Y-79011232D01*
X127042521Y-79206771D01*
X127040305Y-79215314D01*
X126979386Y-79419938D01*
X126978802Y-79421844D01*
X126918502Y-79613089D01*
X126915759Y-79620875D01*
X126838208Y-79819624D01*
X126837251Y-79822003D01*
X126760460Y-80007393D01*
X126757299Y-80014401D01*
X126663637Y-80205987D01*
X126662226Y-80208783D01*
X126569546Y-80386820D01*
X126566080Y-80393036D01*
X126456943Y-80576193D01*
X126455000Y-80579346D01*
X126347120Y-80748682D01*
X126343457Y-80754110D01*
X126219599Y-80927584D01*
X126217058Y-80931016D01*
X126094826Y-81090312D01*
X126091072Y-81094967D01*
X125953307Y-81257626D01*
X125950108Y-81261258D01*
X125814454Y-81409299D01*
X125810712Y-81413207D01*
X125660007Y-81563912D01*
X125656099Y-81567654D01*
X125508058Y-81703308D01*
X125504426Y-81706507D01*
X125341767Y-81844272D01*
X125337112Y-81848026D01*
X125177816Y-81970258D01*
X125174384Y-81972799D01*
X125000910Y-82096657D01*
X124995482Y-82100320D01*
X124826146Y-82208200D01*
X124822993Y-82210143D01*
X124639836Y-82319280D01*
X124633620Y-82322746D01*
X124455583Y-82415426D01*
X124452787Y-82416837D01*
X124261201Y-82510499D01*
X124254193Y-82513660D01*
X124068803Y-82590451D01*
X124066424Y-82591408D01*
X123867675Y-82668959D01*
X123859889Y-82671702D01*
X123668644Y-82732002D01*
X123666738Y-82732586D01*
X123462114Y-82793505D01*
X123453571Y-82795721D01*
X123258032Y-82839071D01*
X123256639Y-82839371D01*
X123047396Y-82883244D01*
X123038136Y-82884822D01*
X122840369Y-82910859D01*
X122839521Y-82910968D01*
X122626557Y-82937514D01*
X122616628Y-82938348D01*
X122420581Y-82946908D01*
X122420297Y-82946920D01*
X122205763Y-82955794D01*
X122200638Y-82955900D01*
X117676962Y-82955900D01*
X117671837Y-82955794D01*
X117457301Y-82946920D01*
X117457017Y-82946908D01*
X117260970Y-82938348D01*
X117251041Y-82937514D01*
X117038077Y-82910968D01*
X117037229Y-82910859D01*
X116839462Y-82884822D01*
X116830202Y-82883244D01*
X116620959Y-82839371D01*
X116619566Y-82839071D01*
X116424027Y-82795721D01*
X116415484Y-82793505D01*
X116210860Y-82732586D01*
X116208954Y-82732002D01*
X116017709Y-82671702D01*
X116009923Y-82668959D01*
X115881385Y-82618804D01*
X115811134Y-82591391D01*
X115808795Y-82590451D01*
X115623405Y-82513660D01*
X115616397Y-82510499D01*
X115424811Y-82416837D01*
X115422015Y-82415426D01*
X115243978Y-82322746D01*
X115237762Y-82319280D01*
X115208297Y-82301723D01*
X115163706Y-82256013D01*
X115147774Y-82194175D01*
X115164726Y-82132609D01*
X115210066Y-82087643D01*
X115271770Y-82071200D01*
X115282400Y-82071200D01*
X115282400Y-80971200D01*
X115782400Y-80971200D01*
X115782400Y-82071200D01*
X116580224Y-82071200D01*
X116639775Y-82064797D01*
X116774489Y-82014552D01*
X116889588Y-81928388D01*
X116975752Y-81813289D01*
X117025997Y-81678575D01*
X117032400Y-81619024D01*
X117032400Y-80971200D01*
X115782400Y-80971200D01*
X115282400Y-80971200D01*
X114032400Y-80971200D01*
X114032400Y-81047002D01*
X114017939Y-81105116D01*
X113977929Y-81149675D01*
X113921702Y-81170286D01*
X113862372Y-81162143D01*
X113813778Y-81127144D01*
X113786526Y-81094968D01*
X113782772Y-81090312D01*
X113660540Y-80931016D01*
X113657999Y-80927584D01*
X113534141Y-80754110D01*
X113530478Y-80748682D01*
X113422598Y-80579346D01*
X113420655Y-80576193D01*
X113358093Y-80471200D01*
X114032400Y-80471200D01*
X115282400Y-80471200D01*
X115282400Y-79371200D01*
X115782400Y-79371200D01*
X115782400Y-80471200D01*
X117032400Y-80471200D01*
X117032400Y-79823376D01*
X117025997Y-79763824D01*
X116975752Y-79629110D01*
X116889588Y-79514011D01*
X116774489Y-79427847D01*
X116639775Y-79377602D01*
X116580224Y-79371200D01*
X115782400Y-79371200D01*
X115282400Y-79371200D01*
X114484576Y-79371200D01*
X114425024Y-79377602D01*
X114290310Y-79427847D01*
X114175211Y-79514011D01*
X114089047Y-79629110D01*
X114038802Y-79763824D01*
X114032400Y-79823376D01*
X114032400Y-80471200D01*
X113358093Y-80471200D01*
X113311518Y-80393036D01*
X113308052Y-80386820D01*
X113215372Y-80208783D01*
X113213961Y-80205987D01*
X113202382Y-80182303D01*
X113120286Y-80014372D01*
X113117152Y-80007424D01*
X113040311Y-79821913D01*
X113039446Y-79819763D01*
X112961831Y-79620853D01*
X112959096Y-79613089D01*
X112954066Y-79597136D01*
X112898759Y-79421725D01*
X112898250Y-79420065D01*
X112837289Y-79215301D01*
X112835080Y-79206786D01*
X112791712Y-79011165D01*
X112791427Y-79009839D01*
X112785895Y-78983457D01*
X112758737Y-78853930D01*
X116499221Y-78853930D01*
X116605487Y-78910730D01*
X116784569Y-78965055D01*
X116970799Y-78983396D01*
X117157030Y-78965055D01*
X117336110Y-78910731D01*
X117442377Y-78853930D01*
X117442377Y-78853929D01*
X116970801Y-78382353D01*
X116970800Y-78382353D01*
X116499221Y-78853930D01*
X112758737Y-78853930D01*
X112747553Y-78800592D01*
X112745976Y-78791336D01*
X112719890Y-78593193D01*
X112719883Y-78593143D01*
X112693281Y-78379730D01*
X112692452Y-78369855D01*
X112683886Y-78173671D01*
X112675005Y-77958962D01*
X112674900Y-77953839D01*
X112674900Y-76020961D01*
X112675006Y-76015837D01*
X112675437Y-76005424D01*
X112683888Y-75801087D01*
X112692452Y-75604940D01*
X112693281Y-75595073D01*
X112719891Y-75381595D01*
X112745978Y-75183445D01*
X112747551Y-75174216D01*
X112791462Y-74964792D01*
X112791697Y-74963702D01*
X112835084Y-74767999D01*
X112837285Y-74759511D01*
X112898275Y-74554653D01*
X112898737Y-74553143D01*
X112959104Y-74361684D01*
X112961823Y-74353965D01*
X113039474Y-74154964D01*
X113040283Y-74152953D01*
X113117162Y-73967351D01*
X113120274Y-73960451D01*
X113213987Y-73768757D01*
X113215345Y-73766067D01*
X113308067Y-73587951D01*
X113311518Y-73581762D01*
X113420695Y-73398539D01*
X113422550Y-73395529D01*
X113530490Y-73226097D01*
X113534121Y-73220716D01*
X113658035Y-73047164D01*
X113660502Y-73043833D01*
X113782801Y-72884448D01*
X113786510Y-72879850D01*
X113805507Y-72857420D01*
X113862430Y-72819431D01*
X113930838Y-72817425D01*
X113989892Y-72852014D01*
X114021602Y-72912662D01*
X114016310Y-72980895D01*
X113987509Y-73058114D01*
X113981100Y-73117730D01*
X113981100Y-74913469D01*
X113987509Y-74973084D01*
X114001807Y-75011419D01*
X114037804Y-75107931D01*
X114124054Y-75223146D01*
X114239269Y-75309396D01*
X114374117Y-75359691D01*
X114433727Y-75366100D01*
X115072147Y-75366099D01*
X115119600Y-75375538D01*
X115159828Y-75402418D01*
X115712211Y-75954801D01*
X115744305Y-76010388D01*
X115744305Y-76074574D01*
X115734592Y-76110822D01*
X115715522Y-76328800D01*
X115734592Y-76546774D01*
X115791225Y-76758131D01*
X115830787Y-76842971D01*
X115883698Y-76956439D01*
X116009202Y-77135677D01*
X116009205Y-77135680D01*
X116163923Y-77290398D01*
X116171072Y-77295404D01*
X116213627Y-77347450D01*
X116222766Y-77414055D01*
X116195804Y-77475640D01*
X116177081Y-77498455D01*
X116088869Y-77663487D01*
X116034544Y-77842569D01*
X116016203Y-78028799D01*
X116034545Y-78215034D01*
X116088866Y-78394107D01*
X116145669Y-78500376D01*
X116883118Y-77762927D01*
X116938705Y-77730833D01*
X117002893Y-77730833D01*
X117058480Y-77762927D01*
X117795930Y-78500377D01*
X117852731Y-78394110D01*
X117907055Y-78215030D01*
X117925396Y-78028799D01*
X117907055Y-77842569D01*
X117852730Y-77663487D01*
X117764518Y-77498455D01*
X117745798Y-77475644D01*
X117718833Y-77414057D01*
X117727972Y-77347450D01*
X117770530Y-77295403D01*
X117777677Y-77290398D01*
X117846152Y-77221923D01*
X117932398Y-77135677D01*
X118057902Y-76956439D01*
X118058900Y-76954300D01*
X118088418Y-76890997D01*
X118134175Y-76838821D01*
X118200800Y-76819401D01*
X118267425Y-76838821D01*
X118313182Y-76890997D01*
X118343697Y-76956438D01*
X118449596Y-77107677D01*
X118469459Y-77153725D01*
X118469459Y-77203875D01*
X118449596Y-77249923D01*
X118343698Y-77401161D01*
X118251225Y-77599468D01*
X118194592Y-77810825D01*
X118175522Y-78028799D01*
X118194592Y-78246774D01*
X118251225Y-78458131D01*
X118270925Y-78500377D01*
X118343698Y-78656439D01*
X118469202Y-78835677D01*
X118623923Y-78990398D01*
X118677425Y-79027861D01*
X118716289Y-79072177D01*
X118730300Y-79129434D01*
X118730300Y-79246701D01*
X118713687Y-79308701D01*
X118668300Y-79354088D01*
X118606300Y-79370701D01*
X118484528Y-79370701D01*
X118454722Y-79373904D01*
X118424915Y-79377109D01*
X118290069Y-79427404D01*
X118174854Y-79513654D01*
X118088604Y-79628868D01*
X118038309Y-79763715D01*
X118038309Y-79763717D01*
X118032043Y-79822003D01*
X118031900Y-79823330D01*
X118031900Y-81619069D01*
X118038309Y-81678684D01*
X118063456Y-81746107D01*
X118088604Y-81813531D01*
X118174854Y-81928746D01*
X118290069Y-82014996D01*
X118424917Y-82065291D01*
X118484527Y-82071700D01*
X120580272Y-82071699D01*
X120639883Y-82065291D01*
X120774731Y-82014996D01*
X120889946Y-81928746D01*
X120976196Y-81813531D01*
X121026491Y-81678683D01*
X121032900Y-81619073D01*
X121032900Y-81545700D01*
X121049513Y-81483700D01*
X121094900Y-81438313D01*
X121156900Y-81421700D01*
X121945879Y-81421700D01*
X121953366Y-81421926D01*
X121956506Y-81422115D01*
X122013406Y-81425558D01*
X122072582Y-81414713D01*
X122079981Y-81413587D01*
X122139672Y-81406340D01*
X122149135Y-81402750D01*
X122170758Y-81396722D01*
X122180732Y-81394895D01*
X122219342Y-81377517D01*
X122260251Y-81366995D01*
X122302321Y-81370817D01*
X122395792Y-81395863D01*
X122631200Y-81416459D01*
X122866608Y-81395863D01*
X123094863Y-81334703D01*
X123309030Y-81234835D01*
X123502601Y-81099295D01*
X123669695Y-80932201D01*
X123805235Y-80738630D01*
X123905103Y-80524463D01*
X123966263Y-80296208D01*
X123986859Y-80060800D01*
X123966263Y-79825392D01*
X123905103Y-79597137D01*
X123805235Y-79382971D01*
X123669695Y-79189399D01*
X123502601Y-79022305D01*
X123317039Y-78892373D01*
X123278175Y-78848057D01*
X123264164Y-78790800D01*
X123278175Y-78733543D01*
X123317039Y-78689226D01*
X123502601Y-78559295D01*
X123669695Y-78392201D01*
X123805235Y-78198630D01*
X123905103Y-77984463D01*
X123966263Y-77756208D01*
X123986859Y-77520800D01*
X123971692Y-77347450D01*
X123966263Y-77285392D01*
X123944421Y-77203875D01*
X123905103Y-77057137D01*
X123805235Y-76842971D01*
X123669695Y-76649399D01*
X123502601Y-76482305D01*
X123316602Y-76352067D01*
X123277739Y-76307751D01*
X123263728Y-76250494D01*
X123277739Y-76193237D01*
X123316605Y-76148919D01*
X123502278Y-76018909D01*
X123669306Y-75851881D01*
X123804800Y-75658376D01*
X123904630Y-75444292D01*
X123961836Y-75230800D01*
X121300564Y-75230800D01*
X121357769Y-75444292D01*
X121396288Y-75526895D01*
X121407641Y-75587410D01*
X121388487Y-75645925D01*
X121343549Y-75688014D01*
X121283906Y-75703300D01*
X120583949Y-75703300D01*
X120526692Y-75689289D01*
X120482374Y-75650423D01*
X120479224Y-75645925D01*
X120419566Y-75560723D01*
X120397406Y-75497710D01*
X120411152Y-75432343D01*
X120456813Y-75383591D01*
X120521141Y-75365600D01*
X120529424Y-75365600D01*
X120588975Y-75359197D01*
X120723689Y-75308952D01*
X120838788Y-75222788D01*
X120924952Y-75107689D01*
X120975197Y-74972975D01*
X120981600Y-74913424D01*
X120981600Y-74730800D01*
X121300564Y-74730800D01*
X122381200Y-74730800D01*
X122381200Y-73650164D01*
X122881200Y-73650164D01*
X122881200Y-74730800D01*
X123961836Y-74730800D01*
X123961835Y-74730799D01*
X123904630Y-74517307D01*
X123804799Y-74303221D01*
X123669309Y-74109721D01*
X123502281Y-73942693D01*
X123308776Y-73807199D01*
X123094692Y-73707369D01*
X122881200Y-73650164D01*
X122381200Y-73650164D01*
X122381199Y-73650164D01*
X122167707Y-73707369D01*
X121953621Y-73807200D01*
X121760121Y-73942690D01*
X121593090Y-74109721D01*
X121457600Y-74303221D01*
X121357769Y-74517307D01*
X121300564Y-74730799D01*
X121300564Y-74730800D01*
X120981600Y-74730800D01*
X120981600Y-74265600D01*
X117981600Y-74265600D01*
X117981600Y-74913424D01*
X117988002Y-74972975D01*
X118038247Y-75107689D01*
X118124411Y-75222788D01*
X118239510Y-75308952D01*
X118388818Y-75364641D01*
X118387464Y-75368269D01*
X118419150Y-75380428D01*
X118459422Y-75429646D01*
X118469999Y-75492354D01*
X118448101Y-75552058D01*
X118343697Y-75701162D01*
X118313180Y-75766605D01*
X118267423Y-75818779D01*
X118200798Y-75838198D01*
X118134173Y-75818778D01*
X118088417Y-75766602D01*
X118057902Y-75701162D01*
X118019225Y-75645925D01*
X117932398Y-75521923D01*
X117777677Y-75367202D01*
X117598439Y-75241698D01*
X117499386Y-75195509D01*
X117400131Y-75149225D01*
X117188774Y-75092592D01*
X117090950Y-75084033D01*
X117029964Y-75061607D01*
X116988693Y-75011419D01*
X116978469Y-74947250D01*
X116982099Y-74913478D01*
X116982100Y-74913473D01*
X116982099Y-73765600D01*
X117981600Y-73765600D01*
X119231600Y-73765600D01*
X119231600Y-72665600D01*
X119731600Y-72665600D01*
X119731600Y-73765600D01*
X120981600Y-73765600D01*
X120981600Y-73117776D01*
X120975197Y-73058224D01*
X120924952Y-72923510D01*
X120838788Y-72808411D01*
X120723689Y-72722247D01*
X120588975Y-72672002D01*
X120529424Y-72665600D01*
X119731600Y-72665600D01*
X119231600Y-72665600D01*
X118433776Y-72665600D01*
X118374224Y-72672002D01*
X118239510Y-72722247D01*
X118124411Y-72808411D01*
X118038247Y-72923510D01*
X117988002Y-73058224D01*
X117981600Y-73117776D01*
X117981600Y-73765600D01*
X116982099Y-73765600D01*
X116982099Y-73117728D01*
X116975691Y-73058117D01*
X116925396Y-72923269D01*
X116839146Y-72808054D01*
X116723931Y-72721804D01*
X116589083Y-72671509D01*
X116529473Y-72665100D01*
X116529469Y-72665100D01*
X114433730Y-72665100D01*
X114374115Y-72671509D01*
X114242907Y-72720447D01*
X114176686Y-72726134D01*
X114117041Y-72696809D01*
X114081108Y-72640895D01*
X114079210Y-72574458D01*
X114111890Y-72516588D01*
X114217638Y-72410840D01*
X114221428Y-72407211D01*
X114369611Y-72271427D01*
X114373158Y-72268303D01*
X114535845Y-72130514D01*
X114540448Y-72126801D01*
X114699833Y-72004502D01*
X114703164Y-72002035D01*
X114876716Y-71878121D01*
X114882097Y-71874490D01*
X115051529Y-71766550D01*
X115054539Y-71764695D01*
X115237773Y-71655511D01*
X115243951Y-71652067D01*
X115422067Y-71559345D01*
X115424757Y-71557987D01*
X115616451Y-71464274D01*
X115623351Y-71461162D01*
X115808953Y-71384283D01*
X115810964Y-71383474D01*
X116009965Y-71305823D01*
X116017684Y-71303104D01*
X116209143Y-71242737D01*
X116210653Y-71242275D01*
X116415511Y-71181285D01*
X116423999Y-71179084D01*
X116619702Y-71135697D01*
X116620792Y-71135462D01*
X116830216Y-71091551D01*
X116839445Y-71089978D01*
X117037595Y-71063891D01*
X117251073Y-71037281D01*
X117260940Y-71036452D01*
X117457028Y-71027890D01*
X117671837Y-71019005D01*
X117676961Y-71018900D01*
X122200639Y-71018900D01*
X122205762Y-71019005D01*
G37*
%TD.AperFunction*%
M02*
